<?xml version="1.0" encoding="UTF-8"?>
<svg width="15px" height="23px" viewBox="0 0 15 23" version="1.1" xmlns="http://www.w3.org/2000/svg" xmlns:xlink="http://www.w3.org/1999/xlink">
    <!-- Generator: Sketch 51.1 (57501) - http://www.bohemiancoding.com/sketch -->
    <title>Suppr-group</title>
    <desc>Created with Sketch.</desc>
    <defs></defs>
    <g id="Page-1" stroke="none" stroke-width="1" fill="none" fill-rule="evenodd">
        <g id="3---Utilisateurs" transform="translate(-1354.000000, -286.000000)" fill="#FA4516">
            <g id="Group-12" transform="translate(364.000000, 221.000000)">
                <g id="Group-4" transform="translate(0.000000, 65.000000)">
                    <g id="Suppr-group" transform="translate(990.000000, 0.000000)">
                        <g id="icon_delete">
                            <g>
                                <g id="recycle-bin">
                                    <path d="M0.796414758,8.55610369 C0.701531828,8.55433346 0.609835242,8.59097669 0.542213474,8.65771337 C0.474768671,8.72445005 0.436886329,8.81561556 0.437240393,8.91049849 L0.437240393,20.2941489 C0.437240393,20.902922 0.649841873,21.4679711 1.03893267,21.8770652 C1.4220048,22.2845662 1.95678344,22.5150467 2.51599083,22.5138076 L10.6495468,22.5138076 C11.2073381,22.5148697 11.7405235,22.2842121 12.1214714,21.8770652 C12.5105622,21.4676171 12.7182072,20.902745 12.7182072,20.2941489 L12.7182072,8.91049849 C12.7210395,8.81650065 12.6852813,8.7256892 12.6194298,8.65877547 C12.5535782,8.59186178 12.4631207,8.55486453 12.3693,8.55610369 L0.796414758,8.55610369 Z M11.9931316,20.2941489 C11.9931316,21.1411915 11.4231259,21.7887321 10.6495468,21.7887321 L2.51599083,21.7887321 C1.74241174,21.7887321 1.16231592,21.1411915 1.16231592,20.2941489 L1.16231592,9.28117921 L11.9931316,9.28117921 L11.9931316,20.2941489 Z" id="Shape" fill-rule="nonzero"></path>
                                    <path d="M9.13814674,19.8053956 C9.33835677,19.8053956 9.5006845,19.6430679 9.5006845,19.4428578 L9.5006845,10.8879933 C9.5006845,10.6877832 9.33835677,10.5254555 9.13814674,10.5254555 C8.93793666,10.5254555 8.77560897,10.6877832 8.77560897,10.8879933 L8.77560897,19.4428578 C8.77560897,19.6430679 8.93793666,19.8053956 9.13814674,19.8053956 Z" id="Shape" fill-rule="nonzero"></path>
                                    <path d="M4.01730082,19.8053956 C4.21751085,19.8053956 4.37983858,19.6430679 4.37983858,19.4428578 L4.37983858,10.8879933 C4.37983858,10.6877832 4.21751085,10.5254555 4.01730082,10.5254555 C3.81709074,10.5254555 3.65476305,10.6877832 3.65476305,10.8879933 L3.65476305,19.4428578 C3.65476305,19.6430679 3.81709074,19.8053956 4.01730082,19.8053956 Z" id="Shape" fill-rule="nonzero"></path>
                                    <path d="M14.0879909,8.53822459 C14.2582845,8.53804758 14.4053885,8.4194439 14.4418547,8.25322178 L14.956984,5.90150583 C15.1520605,5.01020819 14.5877195,4.12935471 13.6964218,3.93410121 L11.5812052,3.47083885 L11.7132624,2.86755335 C11.9085159,1.97625566 11.3441748,1.09540219 10.4527002,0.900148686 L6.72358858,0.0835536254 C5.83229089,-0.111699879 4.95143742,0.452641133 4.75636092,1.34411583 L4.62412668,1.94740133 L2.50908707,1.48431598 C1.61761233,1.28888547 0.736758852,1.85340353 0.541505393,2.74470118 L0.0265530816,5.09641713 C-0.0162858761,5.29202465 0.10745139,5.48533092 0.303058912,5.52816983 L14.009925,8.52972761 C14.0355929,8.53539227 14.0617919,8.53822459 14.0879909,8.53822459 Z M5.46461955,1.49918569 C5.57401813,0.998926088 6.06843607,0.682236616 6.56869573,0.791812205 L10.2978073,1.60840731 C10.7980669,1.7179829 11.1147564,2.21222384 11.0051808,2.71248349 L10.8731236,3.31576899 L5.3323853,2.10247119 L5.46461955,1.49918569 Z M0.812523625,4.89744616 L1.24994098,2.8999481 C1.35933961,2.39968844 1.85375755,2.08299897 2.35401716,2.19257456 L13.541175,4.64235979 C14.0414346,4.75193542 14.3581241,5.24617636 14.2485484,5.74643601 L13.811131,7.74393408 L0.812523625,4.89744616 Z" id="Shape" fill-rule="nonzero"></path>
                                    <path d="M6.60038239,19.8053956 C6.80059242,19.8053956 6.96292015,19.6430679 6.96292015,19.4428578 L6.96292015,10.8879933 C6.96292015,10.6877832 6.80059242,10.5254555 6.60038239,10.5254555 C6.40017231,10.5254555 6.23784462,10.6877832 6.23784462,10.8879933 L6.23784462,19.4428578 C6.23784462,19.6430679 6.40017231,19.8053956 6.60038239,19.8053956 Z" id="Shape" fill-rule="nonzero"></path>
                                </g>
                            </g>
                        </g>
                    </g>
                </g>
            </g>
        </g>
    </g>
</svg>