<?xml version="1.0" encoding="UTF-8"?>
<svg width="20px" height="20px" viewBox="0 0 20 20" version="1.1" xmlns="http://www.w3.org/2000/svg" xmlns:xlink="http://www.w3.org/1999/xlink">
    <!-- Generator: Sketch 51.1 (57501) - http://www.bohemiancoding.com/sketch -->
    <title>recherche</title>
    <desc>Created with Sketch.</desc>
    <defs></defs>
    <g id="Page-1" stroke="none" stroke-width="1" fill="none" fill-rule="evenodd">
        <g id="39---Intrants/matériels" transform="translate(-959.000000, -149.000000)" fill="#FFFFFF" fill-rule="nonzero">
            <g id="Group-16-Copy-4" transform="translate(946.000000, 136.000000)">
                <g id="recherche" transform="translate(13.000000, 13.000000)">
                    <path d="M19.7485843,18.9070442 L14.9069674,14.0654273 C16.2057223,12.5723009 16.9920433,10.6241685 16.9920433,8.49491728 C16.9920433,3.80791404 13.1797118,0 8.49712604,0 C3.8101228,0 0.00220876684,3.81233157 0.00220876684,8.49491728 C0.00220876684,13.177503 3.81454034,16.9898346 8.49712604,16.9898346 C10.6263773,16.9898346 12.5745096,16.2035136 14.067636,14.9047587 L18.9092529,19.7463756 C19.0241088,19.8612315 19.1787225,19.9230769 19.3289186,19.9230769 C19.4791148,19.9230769 19.6337285,19.865649 19.7485843,19.7463756 C19.9782961,19.5166638 19.9782961,19.1367559 19.7485843,18.9070442 Z M1.19052533,8.49491728 C1.19052533,4.46612656 4.46833532,1.1927341 8.49270851,1.1927341 C12.5214992,1.1927341 15.7948917,4.47054409 15.7948917,8.49491728 C15.7948917,12.5192905 12.5214992,15.801518 8.49270851,15.801518 C4.46833532,15.801518 1.19052533,12.523708 1.19052533,8.49491728 Z" id="Shape"></path>
                </g>
            </g>
        </g>
    </g>
</svg>